<?xml version="1.0" standalone="no"?>
<!DOCTYPE svg PUBLIC "-//W3C//DTD SVG 20010904//EN"
 "http://www.w3.org/TR/2001/REC-SVG-20010904/DTD/svg10.dtd">
<svg version="1.0" xmlns="http://www.w3.org/2000/svg"
 width="224.000000pt" height="224.000000pt" viewBox="0 0 224.000000 224.000000"
 preserveAspectRatio="xMidYMid meet">

<g transform="translate(0.000000,224.000000) scale(0.100000,-0.100000)"
fill="#ff000e" stroke="none">
<path d="M970 2229 c-118 -14 -245 -54 -370 -116 -134 -68 -158 -94 -125 -139
13 -16 99 -66 235 -135 259 -132 291 -141 512 -137 l151 3 35 110 c79 256 82
269 76 301 -12 66 -73 93 -249 114 -102 11 -158 11 -265 -1z"/>
<path d="M1553 2084 c-18 -28 -18 -29 58 -277 l31 -97 180 2 c197 3 208 7 195
60 -15 59 -237 262 -348 319 -54 27 -95 25 -116 -7z"/>
<path d="M1991 1639 c-19 -11 -85 -59 -148 -106 -85 -64 -112 -90 -108 -102 4
-9 20 -58 36 -109 35 -115 60 -172 94 -216 27 -36 247 -208 291 -228 40 -19
61 14 70 109 27 295 -73 673 -178 673 -13 0 -38 -9 -57 -21z"/>
<path d="M695 1623 c-121 -7 -294 -16 -385 -21 -106 -5 -176 -14 -194 -23 -41
-19 -63 -61 -91 -176 -22 -86 -25 -120 -25 -283 0 -244 25 -347 128 -543 71
-136 136 -182 205 -145 20 10 422 321 652 504 171 135 209 190 274 393 l37
117 -108 78 c-161 116 -167 118 -493 99z"/>
<path d="M1415 1224 c-121 -87 -148 -115 -189 -193 -37 -72 -55 -122 -85 -233
-11 -40 -51 -183 -89 -318 -98 -342 -104 -369 -97 -407 10 -57 50 -73 175 -73
163 0 303 30 452 98 195 88 418 287 418 372 0 15 -11 58 -24 96 -166 478 -177
504 -233 555 -35 32 -209 158 -226 164 -6 2 -52 -25 -102 -61z"/>
</g>
</svg>
