<?xml version="1.0" encoding="utf-8"?>
<!-- Generator: Adobe Illustrator 21.1.0, SVG Export Plug-In . SVG Version: 6.00 Build 0)  -->
<svg version="1.1" id="Layer_1" xmlns="http://www.w3.org/2000/svg" xmlns:xlink="http://www.w3.org/1999/xlink" x="0px" y="0px"
	 viewBox="0 0 128 128" style="enable-background:new 0 0 128 128;" xml:space="preserve">
<style type="text/css">
	.st0{fill:none;}
	.st1{opacity:0.75;fill:#CE5043;enable-background:new    ;}
	.st2{fill:#FFFFFF;}
</style>
<rect class="st0" width="128" height="128"/>
<g>
	<path class="st1" d="M124.3,41.8c-1.3-5-5.2-9-10.2-10.4C105.1,29,78.2,29,69,29S32.9,29,24,31.4c-5,1.3-8.9,5.3-10.2,10.4
		C11.3,50.9,11.3,70,11.3,70s0,19.1,2.4,28.2c1.3,5,5.2,9,10.2,10.4c9,2.4,31.5,2.4,45.1,2.4s36.1,0,45.1-2.4
		c5-1.3,8.9-5.3,10.2-10.4c2.4-9.1,2.4-28.2,2.4-28.2S126.7,50.9,124.3,41.8z"/>
	<path d="M64.6,25.3C64.6,25.3,64.6,25.3,64.6,25.3l-0.2,0c-1.3,0-2.3-1.1-2.3-2.3c0,0,0,0,0,0c0-1.3,1.1-2.3,2.3-2.3c0,0,0,0,0,0
		l0.2,0c1.3,0,2.3,1.1,2.3,2.3c0,0,0,0,0,0C66.9,24.3,65.9,25.3,64.6,25.3z"/>
	<path d="M64,107.4c-1.5,0-36.5,0-45.7-2.5c-5.8-1.6-10.3-6.2-11.8-12C4,83.5,4,64.8,4,64s0-19.5,2.5-28.8c1.5-5.8,6.1-10.5,11.8-12
		c6.1-1.7,23.1-2.2,36.4-2.4c1.3,0,2.4,1,2.4,2.3c0,1.3-1,2.4-2.3,2.4c-18.4,0.3-30.9,1.1-35.2,2.3c-4.2,1.1-7.4,4.5-8.5,8.7
		C8.7,45.1,8.7,63.8,8.7,64c0,0.2,0,18.9,2.3,27.6c1.1,4.2,4.4,7.6,8.5,8.7c8.6,2.3,44.1,2.4,44.4,2.4s35.8,0,44.4-2.4
		c4.2-1.1,7.4-4.5,8.5-8.7c2.3-8.7,2.3-27.4,2.3-27.6c0-0.2,0-18.9-2.3-27.6c-1.1-4.2-4.4-7.6-8.5-8.7c-4.3-1.2-16.4-2-34.2-2.3
		c-1.3,0-2.3-1.1-2.3-2.4c0-1.3,1.1-2.3,2.4-2.3c12.9,0.2,29.4,0.8,35.4,2.4c5.8,1.6,10.3,6.2,11.8,12c2.5,9.3,2.5,28,2.5,28.8
		s0,19.5-2.5,28.8c-1.5,5.8-6.1,10.5-11.8,12C100.5,107.3,65.5,107.4,64,107.4z"/>
	<polygon class="st2" points="52.8,47.5 81.8,64.4 52.8,81.2 	"/>
	<path d="M17.6,81.6c-1.3,0-2.3-1-2.3-2.3V60.1c0-1.3,1-2.3,2.3-2.3s2.3,1,2.3,2.3v19.1C19.9,80.5,18.9,81.6,17.6,81.6z"/>
	<path d="M17.6,51.8c-1.3,0-2.3-1-2.3-2.3v0c0-1.3,1-2.3,2.3-2.3s2.3,1,2.3,2.3v0C19.9,50.8,18.9,51.8,17.6,51.8z"/>
	<path d="M52.8,83.6c-0.4,0-0.8-0.1-1.2-0.3c-0.7-0.4-1.2-1.2-1.2-2V47.5c0-0.8,0.4-1.6,1.2-2c0.7-0.4,1.6-0.4,2.3,0L83,62.3
		c0.7,0.4,1.2,1.2,1.2,2s-0.4,1.6-1.2,2L53.9,83.3C53.6,83.5,53.2,83.6,52.8,83.6z M55.1,51.6v25.6l22.1-12.8L55.1,51.6z"/>
</g>
</svg>
