<?xml version="1.0" encoding="utf-8"?>
<!-- Generator: Adobe Illustrator 21.1.0, SVG Export Plug-In . SVG Version: 6.00 Build 0)  -->
<svg version="1.1" id="Layer_1" xmlns="http://www.w3.org/2000/svg" xmlns:xlink="http://www.w3.org/1999/xlink" x="0px" y="0px"
	 viewBox="0 0 128 128" style="enable-background:new 0 0 128 128;" xml:space="preserve">
<style type="text/css">
	.st0{fill:none;}
	.st1{opacity:0.75;fill:#FB892A;enable-background:new    ;}
</style>
<rect class="st0" width="128" height="128"/>
<g>
	<path class="st1" d="M93.1,73l-3-50.1c-0.2-4.1-3.7-7.4-7.8-7.4H68.9H71H57.7c-4.1,0-7.6,3.2-7.8,7.4l-3,50.1"/>
	<path d="M27.6,66.8H6.2C5,66.8,4,67.8,4,69s1,2.2,2.2,2.2h5.4v9.2c0,1.2,1,2.2,2.2,2.2h5.5v33.9c0,1.2,1,2.2,2.2,2.2h7.7
		c1.2,0,2.2-1,2.2-2.2s-1-2.2-2.2-2.2h-5.5V82.6H104v31.7h-5.5c-1.2,0-2.2,1-2.2,2.2s1,2.2,2.2,2.2h7.7c1.2,0,2.2-1,2.2-2.2V82.6
		h5.7c1.2,0,2.2-1,2.2-2.2v-9.2h5.4c1.2,0,2.2-1,2.2-2.2s-1-2.2-2.2-2.2h-21.4l-2.6-14.5c-0.6-3.3-3.4-5.6-6.7-5.6h-3l-1.7-28
		c-0.3-5.3-4.7-9.4-10-9.4H51.7c-5.3,0-9.7,4.2-10,9.4l-1.7,28h-3.1c-3.3,0-6.1,2.4-6.7,5.6L27.6,66.8z M111.9,78.2H16v-7h95.9V78.2
		L111.9,78.2z M91,51.1c1.2,0,2.1,0.8,2.4,2l2.5,13.7h-6.7l-0.9-15.6L91,51.1L91,51.1z M46.1,19c0.2-3,2.6-5.3,5.6-5.3h24.6
		c3,0,5.4,2.3,5.6,5.3l2.9,47.8H43.2L46.1,19z M34.6,53.1c0.2-1.1,1.2-2,2.4-2h2.8l-0.9,15.6h-6.7L34.6,53.1z"/>
	<path d="M53.4,35.7h20.7c1.2,0,2.2-1,2.2-2.2s-1-2.2-2.2-2.2H53.4c-1.2,0-2.2,1-2.2,2.2S52.2,35.7,53.4,35.7L53.4,35.7z"/>
	<path d="M87.1,92.3c1.2,0,2.2-1,2.2-2.2s-1-2.2-2.2-2.2H40.9c-1.2,0-2.2,1-2.2,2.2s1,2.2,2.2,2.2h20.9v9.7H51.6
		c-1.2,0-2.2,1-2.2,2.2v12.2c0,1.2,1,2.2,2.2,2.2s2.2-1,2.2-2.2v-10h8v10c0,1.2,1,2.2,2.2,2.2c1.2,0,2.2-1,2.2-2.2v-10h8v10
		c0,1.2,1,2.2,2.2,2.2s2.2-1,2.2-2.2v-12.2c0-1.2-1-2.2-2.2-2.2H66.3v-9.7H87.1z"/>
</g>
</svg>
