<?xml version="1.0" encoding="utf-8"?>
<!-- Generator: Adobe Illustrator 18.1.1, SVG Export Plug-In . SVG Version: 6.00 Build 0)  -->
<svg version="1.1" id="Layer_1" xmlns="http://www.w3.org/2000/svg" xmlns:xlink="http://www.w3.org/1999/xlink" x="0px" y="0px"
	 viewBox="0 0 500 500" enable-background="new 0 0 500 500" xml:space="preserve">
<g>
	<g>
		<defs>
			<rect id="SVGID_1_" width="500" height="500"/>
		</defs>
		<clipPath id="SVGID_2_">
			<use xlink:href="#SVGID_1_"  overflow="visible"/>
		</clipPath>
		<path clip-path="url(#SVGID_2_)" fill="#363636" d="M437.5,104.2c-22.9-8.3-47.9-10.4-72.9-10.4c-39.6,0-85.4,8.3-114.6,31.3
			c-29.2-22.9-75-31.3-114.6-31.3S50,102.1,20.8,125v304.2c0,6.2,6.3,10.4,10.4,10.4c2.1,0,2.1,0,6.3,0
			c29.2-12.5,68.8-22.9,100-22.9c39.6,0,85.4,8.3,114.6,31.3c29.2-18.7,79.2-31.3,114.6-31.3c33.3,0,70.8,6.2,100,20.8
			c2.1,2.1,2.1,2.1,6.3,2.1c6.3,0,10.4-6.2,10.4-10.4V125C466.7,116.7,452.1,110.4,437.5,104.2z M437.5,385.4
			c-22.9-8.3-47.9-10.4-72.9-10.4c-35.4,0-85.4,12.5-114.6,31.3V166.7c29.2-18.7,79.2-31.3,114.6-31.3c25,0,50,2.1,72.9,10.4V385.4z
			"/>
	</g>
</g>
</svg>
