<?xml version="1.0" encoding="utf-8"?>
<!-- Generator: Adobe Illustrator 21.1.0, SVG Export Plug-In . SVG Version: 6.00 Build 0)  -->
<svg version="1.1" id="Layer_1" xmlns="http://www.w3.org/2000/svg" xmlns:xlink="http://www.w3.org/1999/xlink" x="0px" y="0px"
	 viewBox="0 0 500 500" style="enable-background:new 0 0 500 500;" xml:space="preserve">
<style type="text/css">
	.st0{fill:none;}
	.st1{fill:#343640;}
</style>
<path class="st0" d="M0,0h500v500H0V0z"/>
<g>
	<path class="st1" d="M181.7,280.2h71.6c-12.6,35.5-46.6,61-86.4,60.7c-48.3-0.4-88.3-39-90.2-87.3c-2-51.8,39.5-94.6,90.9-94.6
		c23.5,0,44.9,8.9,61.1,23.6c3.8,3.5,9.6,3.5,13.4,0l26.3-24.7c4.1-3.9,4.1-10.4,0-14.3c-25.6-24.3-60-39.4-97.9-40.1
		c-80.8-1.6-149,64.7-149.5,145.5c-0.6,81.4,65.3,147.6,146.6,147.6c78.2,0,142.1-61.2,146.4-138.4c0.1-1,0.2-33.6,0.2-33.6H181.7
		c-5.4,0-9.8,4.4-9.8,9.8v36C171.8,275.8,176.2,280.2,181.7,280.2"/>
	<path class="st1" d="M435.3,227.9v-35.2c0-4.8-3.9-8.6-8.6-8.6h-29.6c-4.8,0-8.6,3.9-8.6,8.6v35.2h-35.2c-4.8,0-8.6,3.9-8.6,8.6
		v29.6c0,4.8,3.9,8.6,8.6,8.6h35.2v35.2c0,4.8,3.9,8.6,8.6,8.6h29.6c4.8,0,8.6-3.9,8.6-8.6v-35.2h35.2c4.8,0,8.6-3.9,8.6-8.6v-29.6
		c0-4.8-3.9-8.6-8.6-8.6H435.3z"/>
</g>
</svg>
