<?xml version="1.0" encoding="utf-8"?>
<!-- Generator: Adobe Illustrator 18.1.1, SVG Export Plug-In . SVG Version: 6.00 Build 0)  -->
<svg version="1.1" id="Layer_1" xmlns="http://www.w3.org/2000/svg" xmlns:xlink="http://www.w3.org/1999/xlink" x="0px" y="0px"
	 viewBox="0 0 500 500" enable-background="new 0 0 500 500" xml:space="preserve">
<path fill="none" d="M0,0h500v500H0V0z"/>
<g>
	<path fill="#FAFAFA" d="M240.6,380.8h-0.2c-1,4.6-2.1,10.4-3.3,14.8l-4.2,16.3h15.7l-4.4-16.3C242.9,391,241.6,385.4,240.6,380.8
		L240.6,380.8z"/>
	<path fill="#FAFAFA" d="M421.3,127c0-2.2-0.7-4.3-2.2-6L328,16.9c0,0,0,0-0.1-0.1c-0.5-0.6-1.2-1.1-1.9-1.5
		c-0.2-0.1-0.4-0.2-0.6-0.4c-0.6-0.3-1.2-0.6-1.8-0.8c-0.2,0-0.3-0.1-0.5-0.2c-0.7-0.2-1.4-0.3-2.1-0.3H97.2
		c-10.2,0-18.5,8.3-18.5,18.5v435.4c0,10.2,8.3,18.5,18.5,18.5h305.7c10.2,0,18.5-8.3,18.5-18.5V128
		C421.4,127.7,421.3,127.3,421.3,127L421.3,127z M147.7,382h-27.2v17.6h25.4v14.2h-25.4v30.9h-16.1v-76.9h43.3V382z M204,444.6
		h-44.2v-76.9h16.1V430H204V444.6z M256.3,444.6l-5.4-19.7h-20.3l-5,19.7H209l21.6-76.9h21l22,76.9H256.3z M300.4,445.8
		c-8.1,0-16.1-2.3-20.1-4.7l3.3-14.4c4.3,2.4,10.9,4.8,17.8,4.8c7.3,0,11.2-3.3,11.2-8.3c0-4.8-3.3-7.5-11.9-10.8
		c-11.8-4.4-19.4-11.5-19.4-22.7c0-13.1,10.1-23.1,26.8-23.1c8,0,13.9,1.8,18.1,3.9l-3.6,14c-2.8-1.5-7.9-3.6-14.8-3.6
		s-10.3,3.4-10.3,7.4c0,4.9,4,7.1,13.1,10.8c12.5,5,18.4,12.1,18.4,22.9C329,434.8,319.8,445.8,300.4,445.8L300.4,445.8z
		 M398.2,444.6h-16v-32.2h-26.4v32.2h-16.1v-76.9h16.1v29.5h26.4v-29.5h16V444.6z M120.3,328.3V55.5h191.4v71.6
		c0,5.1,4.1,9.3,9.3,9.3h58.7v192H120.3V328.3z"/>
	<path fill="#FAFAFA" d="M255.2,147.1c-20.4,15.3-33.4,56.9-44.3,79.7s-31,20.1-31,20.1v26.9c0,0,12.6,0.4,23.2-4
		c10.6-4.4,22.8-14.3,30-26.6c2.8-4.8,7.1-14.6,11.7-25.6H277V190h-20.5c3.2-7,6-13,8.2-16.3c7.9-12.3,27.3-11.9,27.3-11.9v-26.3
		C292,135.5,275.7,131.7,255.2,147.1L255.2,147.1z"/>
</g>
</svg>
