<?xml version="1.0" encoding="utf-8"?>
<!-- Generator: Adobe Illustrator 21.1.0, SVG Export Plug-In . SVG Version: 6.00 Build 0)  -->
<svg version="1.1" id="Layer_1" xmlns="http://www.w3.org/2000/svg" xmlns:xlink="http://www.w3.org/1999/xlink" x="0px" y="0px"
	 viewBox="0 0 500 500" style="enable-background:new 0 0 500 500;" xml:space="preserve">
<style type="text/css">
	.st0{fill:none;}
	.st1{fill:#363636;}
</style>
<path class="st0" d="M0,0h500v500H0V0z"/>
<g>
	<path class="st1" d="M422.4,143.1c-12.6,5.6-26.3,9.5-40.6,11.2c14.6-8.8,25.8-22.6,31.1-39.2c-13.7,8.1-28.8,14-45,17.2
		C355,118.6,336.6,110,316.3,110c-39,0-70.7,31.7-70.7,70.7c0,5.6,0.6,10.9,1.8,16.1c-58.8-3-110.9-31-145.8-73.9
		c-6.1,10.4-9.6,22.6-9.6,35.6c0,24.5,12.5,46.2,31.5,58.8c-11.6-0.3-22.4-3.6-32-8.8v0.9c0,34.3,24.4,62.9,56.7,69.4
		c-5.9,1.6-12.2,2.4-18.6,2.4c-4.5,0-8.9-0.4-13.4-1.2c9,28.1,35.1,48.5,66.1,49.1c-24.2,18.9-54.7,30.2-87.8,30.2
		c-5.7,0-11.3-0.3-16.8-0.9C109,378.3,146.1,390,186.1,390c130,0,201.1-107.7,201.1-201.1l-0.2-9.2
		C400.9,169.8,412.9,157.3,422.4,143.1L422.4,143.1z M422.4,143.1"/>
</g>
</svg>
