<?xml version="1.0" encoding="utf-8"?>
<!-- Generator: Adobe Illustrator 21.1.0, SVG Export Plug-In . SVG Version: 6.00 Build 0)  -->
<svg version="1.1" id="Layer_1" xmlns="http://www.w3.org/2000/svg" xmlns:xlink="http://www.w3.org/1999/xlink" x="0px" y="0px"
	 viewBox="0 0 500 500" style="enable-background:new 0 0 500 500;" xml:space="preserve">
<style type="text/css">
	.st0{fill:none;}
	.st1{fill:#363636;}
</style>
<path class="st0" d="M0,0h500v500H0V0z"/>
<g>
	<path class="st1" d="M285.9,169.7v-40.1c0-6,0.3-10.7,0.8-14c0.6-3.3,1.8-6.6,3.8-9.8c2-3.2,5.2-5.4,9.6-6.6
		c4.4-1.2,10.3-1.8,17.7-1.8H358V17.1h-64.2c-37.1,0-63.8,8.8-80,26.4c-16.2,17.6-24.3,43.6-24.3,77.9v48.3h-48.1V250h48.1v232.9
		h96.4V250H350l8.5-80.3H285.9z M285.9,169.7"/>
</g>
</svg>
