<?xml version="1.0" standalone="no"?>
<!DOCTYPE svg PUBLIC "-//W3C//DTD SVG 20010904//EN"
 "http://www.w3.org/TR/2001/REC-SVG-20010904/DTD/svg10.dtd">
<svg version="1.0" xmlns="http://www.w3.org/2000/svg"
 width="225.000000pt" height="225.000000pt" viewBox="0 0 225.000000 225.000000"
 preserveAspectRatio="xMidYMid meet">

<g transform="translate(0.000000,225.000000) scale(0.100000,-0.100000)"
fill="#000000" stroke="none">
<path d="M892 2200 c-51 -12 -110 -57 -143 -107 -16 -26 -29 -53 -29 -60 0 -9
-14 -13 -43 -13 -56 0 -126 -36 -154 -79 -13 -18 -26 -55 -29 -82 l-7 -49 -56
0 c-99 -1 -186 -61 -211 -147 -8 -27 -10 -258 -8 -760 l3 -721 30 -44 c17 -23
51 -54 75 -68 l45 -25 575 -3 c628 -3 621 -4 691 55 60 51 73 92 79 257 l5
149 45 11 c111 29 195 98 246 201 26 54 29 70 29 155 0 82 -4 103 -27 152 -50
106 -163 199 -264 215 l-34 6 0 190 c0 113 -5 205 -11 228 -28 90 -112 149
-216 149 l-60 0 -7 49 c-12 94 -89 161 -185 161 -36 0 -40 3 -52 37 -18 55
-87 119 -150 137 -57 17 -85 18 -137 6z m113 -61 c52 -14 112 -73 127 -124 17
-60 24 -65 90 -65 55 0 63 -3 94 -34 34 -34 34 -35 34 -125 l0 -91 -396 0
-396 0 4 96 c3 94 4 96 36 125 28 25 40 29 95 29 67 0 87 10 87 45 0 34 54
110 91 127 69 31 77 33 134 17z m-515 -437 c0 -26 5 -53 12 -60 9 -9 124 -12
455 -12 427 0 443 1 453 19 5 11 10 38 10 60 l0 41 48 0 c63 -1 127 -31 152
-72 18 -30 20 -50 20 -234 l0 -201 -40 -6 c-61 -8 -130 -46 -185 -102 -54 -53
-82 -102 -101 -175 l-11 -45 -214 -5 -214 -5 0 -30 0 -30 210 -3 c218 -3 225
-4 225 -47 0 -37 56 -139 101 -186 47 -48 128 -92 192 -103 l37 -7 0 -147 c0
-173 -10 -200 -85 -233 -42 -19 -67 -19 -614 -17 l-569 3 -38 31 c-21 16 -43
46 -50 65 -9 26 -13 200 -13 721 -1 611 1 692 15 728 24 60 87 97 172 99 32 1
32 1 32 -47z m1294 -552 c36 -14 68 -36 99 -69 65 -70 80 -104 85 -197 4 -72
1 -89 -20 -135 -35 -77 -72 -116 -142 -151 -192 -97 -416 31 -434 248 -10 124
57 242 170 298 67 33 162 36 242 6z"/>
<path d="M900 2084 c-56 -40 -72 -92 -45 -148 33 -69 120 -88 175 -38 79 71
42 188 -62 199 -31 3 -50 -1 -68 -13z m90 -64 c26 -26 25 -55 -2 -74 -28 -20
-43 -20 -62 0 -23 22 -20 60 6 78 29 20 34 20 58 -4z"/>
<path d="M442 1488 c-8 -8 -12 -56 -12 -150 0 -121 2 -138 18 -146 25 -13 248
-15 272 -2 19 10 20 21 20 148 0 94 -4 142 -12 150 -8 8 -54 12 -143 12 -89 0
-135 -4 -143 -12z"/>
<path d="M871 1362 c-7 -14 -7 -24 2 -36 11 -15 42 -16 307 -14 l295 3 0 30 0
30 -297 3 c-282 2 -298 1 -307 -16z"/>
<path d="M446 1018 c-13 -8 -16 -32 -16 -146 0 -94 4 -142 12 -150 17 -17 269
-17 286 0 16 16 17 284 1 293 -16 11 -266 13 -283 3z m224 -93 c0 -8 -4 -15
-8 -15 -5 0 -9 7 -9 15 0 8 4 15 9 15 4 0 8 -7 8 -15z m-150 -136 c0 -6 -4 -7
-10 -4 -5 3 -10 11 -10 16 0 6 5 7 10 4 6 -3 10 -11 10 -16z"/>
<path d="M437 544 c-4 -4 -7 -71 -7 -150 0 -120 2 -143 16 -148 23 -9 267 -7
282 2 9 7 12 44 10 153 l-3 144 -146 3 c-80 1 -148 -1 -152 -4z m233 -149 l0
-85 -85 0 -85 0 0 85 0 85 85 0 85 0 0 -85z"/>
<path d="M890 433 c-23 -9 -30 -25 -19 -45 9 -17 28 -18 307 -16 284 3 297 4
300 22 9 42 -16 46 -302 45 -149 0 -278 -3 -286 -6z"/>
<path d="M1708 913 l-98 -97 -34 33 c-39 38 -70 38 -74 1 -4 -34 86 -125 115
-116 11 3 70 58 132 120 101 103 111 117 101 135 -6 12 -18 21 -28 21 -9 0
-61 -44 -114 -97z"/>
</g>
</svg>
